<?xml version="1.0" standalone="no"?>
<!DOCTYPE svg PUBLIC "-//W3C//DTD SVG 20010904//EN"
 "http://www.w3.org/TR/2001/REC-SVG-20010904/DTD/svg10.dtd">
<svg version="1.0" xmlns="http://www.w3.org/2000/svg"
 width="420.000000pt" height="420.000000pt" viewBox="0 0 420.000000 420.000000"
 preserveAspectRatio="xMidYMid meet">
<metadata>
Created by potrace 1.11, written by Peter Selinger 2001-2013
</metadata>
<g transform="translate(0.000000,420.000000) scale(0.100000,-0.100000)"
fill="#000000" stroke="none">
<path d="M2 2098 l3 -2103 2 2097 3 2098 2098 3 2097 2 -2102 3 -2103 2 2
-2102z"/>
<path d="M135 4058 c-3 -7 -4 -895 -3 -1973 l3 -1960 1973 -3 1972 -2 -2 1972
-3 1973 -1968 3 c-1569 2 -1969 0 -1972 -10z m345 -2037 l0 -69 64 5 c136 11
156 -14 156 -199 0 -107 -2 -128 -15 -128 -12 0 -15 20 -15 120 0 66 -5 130
-11 143 -20 43 -70 56 -141 36 l-38 -10 0 -144 c0 -122 -2 -145 -15 -145 -13
0 -15 32 -15 230 0 198 2 230 15 230 12 0 15 -14 15 -69z m630 -161 c0 -198
-2 -230 -15 -230 -13 0 -15 32 -15 230 0 198 2 230 15 230 13 0 15 -32 15
-230z m-159 90 c30 -17 49 -64 49 -125 l0 -55 -105 0 -105 0 0 -35 c0 -71 66
-104 145 -71 31 13 45 12 45 -4 0 -15 -54 -30 -108 -30 -94 1 -112 28 -112
162 1 100 11 132 51 154 29 16 113 18 140 4z m437 -6 c20 -14 22 -14 22 0 0 9
7 16 15 16 13 0 15 -28 15 -194 0 -107 -4 -206 -10 -220 -10 -27 -55 -55 -67
-42 -4 4 3 16 16 26 20 15 25 29 29 81 l5 63 -28 -22 c-40 -32 -124 -31 -162
2 -27 23 -28 29 -31 121 -4 108 7 148 47 170 35 19 121 19 149 -1z m303 -13
c26 -27 29 -36 29 -95 l0 -66 -105 0 -105 0 0 -33 c0 -72 60 -102 145 -74 39
14 45 14 45 1 0 -20 -42 -34 -105 -34 -43 0 -60 5 -82 24 -28 24 -28 26 -28
136 l0 112 33 29 c27 25 41 29 88 29 48 0 59 -4 85 -29z m-1201 -416 c0 -8 -7
-15 -15 -15 -8 0 -15 7 -15 15 0 8 7 15 15 15 8 0 15 -7 15 -15z m430 -53 l0
-67 75 3 c72 4 75 3 105 -26 l30 -30 0 -136 c0 -114 -2 -136 -15 -136 -13 0
-15 21 -15 128 0 145 -8 167 -66 178 -20 4 -53 1 -75 -5 l-39 -12 0 -144 c0
-138 -1 -145 -20 -145 -19 0 -20 7 -20 230 0 223 1 230 20 230 18 0 20 -7 20
-68z m-430 -262 c0 -215 -7 -251 -51 -265 -32 -10 -34 1 -5 35 l26 32 0 184
c0 174 -1 184 -19 184 -10 0 -21 7 -25 15 -4 12 3 15 34 15 l40 0 0 -200z
m279 184 c34 -24 51 -75 51 -154 0 -115 -35 -160 -125 -160 -89 0 -125 48
-125 165 0 117 36 165 125 165 31 0 60 -6 74 -16z m641 6 c40 -21 50 -61 50
-195 0 -104 -2 -125 -15 -125 -12 0 -15 20 -15 120 0 66 -5 130 -11 143 -20
43 -70 56 -141 36 l-38 -10 0 -144 c0 -122 -2 -145 -15 -145 -13 0 -15 25 -15
163 l0 163 90 2 c50 2 99 -2 110 -8z m299 1 c25 -16 3 -30 -28 -18 -64 24
-138 -30 -107 -78 7 -11 40 -29 72 -40 82 -28 100 -40 113 -75 22 -66 -22
-110 -110 -110 -47 0 -63 5 -88 26 -17 14 -31 34 -31 45 0 27 13 24 38 -10 27
-36 78 -47 126 -27 21 9 36 22 37 33 4 51 -9 64 -85 89 -79 26 -106 49 -106
90 0 55 36 84 102 84 29 0 59 -4 67 -9z m292 -1 c30 -17 49 -64 49 -125 l0
-55 -105 0 -105 0 0 -35 c0 -71 66 -104 145 -71 31 13 45 12 45 -4 0 -15 -54
-30 -108 -30 -94 1 -112 28 -112 162 1 100 11 132 51 154 29 16 113 18 140 4z
m149 0 c0 -7 6 -7 19 0 26 13 114 13 144 -1 44 -20 51 -46 55 -186 3 -114 2
-133 -11 -133 -13 0 -16 22 -19 129 -3 109 -6 132 -22 150 -25 27 -73 35 -124
21 l-42 -11 0 -144 c0 -122 -2 -145 -15 -145 -13 0 -15 25 -15 165 0 140 2
165 15 165 8 0 15 -5 15 -10z m-1399 -579 l29 -29 0 -136 c0 -114 -2 -136 -15
-136 -13 0 -15 20 -15 124 0 68 -3 132 -6 141 -7 18 -55 45 -81 45 -10 0 -35
-5 -55 -11 l-38 -10 0 -144 c0 -138 -1 -145 -20 -145 -19 0 -20 7 -20 164 l0
163 96 2 c93 1 96 1 125 -28z m305 11 c36 -28 44 -57 44 -147 0 -91 -14 -136
-49 -155 -28 -15 -107 -12 -140 4 -39 21 -51 56 -51 152 0 89 14 134 47 153
30 17 125 13 149 -7z m-600 -283 c10 -17 -13 -36 -27 -22 -12 12 -4 33 11 33
5 0 12 -5 16 -11z"/>
<path d="M835 1928 c-33 -18 -45 -40 -45 -85 l0 -43 90 0 90 0 0 39 c0 53 -8
69 -41 86 -33 18 -66 19 -94 3z"/>
<path d="M1280 1933 c-8 -3 -25 -15 -37 -26 -21 -18 -23 -30 -23 -109 0 -49 5
-98 10 -108 6 -11 27 -24 48 -31 31 -9 45 -8 75 5 46 19 57 46 57 141 0 62 -4
78 -22 100 -23 26 -78 40 -108 28z"/>
<path d="M1540 1912 c-24 -24 -30 -39 -30 -71 l0 -41 90 0 90 0 0 48 c0 59
-20 81 -79 89 -35 5 -44 2 -71 -25z"/>
<path d="M650 1368 c-40 -22 -51 -54 -48 -145 3 -70 6 -86 26 -105 32 -32 102
-32 134 0 21 20 23 32 23 117 0 82 -3 97 -21 115 -26 26 -81 35 -114 18z"/>
<path d="M1885 1368 c-33 -18 -45 -40 -45 -85 l0 -43 90 0 90 0 0 39 c0 53 -8
69 -41 86 -33 18 -66 19 -94 3z"/>
<path d="M941 809 c-42 -17 -50 -38 -51 -136 0 -90 0 -92 31 -117 35 -29 67
-33 108 -11 37 19 41 31 41 130 0 99 -4 111 -41 130 -32 17 -54 18 -88 4z"/>
</g>
</svg>
